<?xml version="1.0" encoding="UTF-8" standalone="no"?>
<!DOCTYPE svg PUBLIC "-//W3C//DTD SVG 1.1//EN"
 "http://www.w3.org/Graphics/SVG/1.1/DTD/svg11.dtd">
<!-- Generated by graphviz version 14.1.5 (20260411.2331)
 -->
<!-- Title: ptah_schema Pages: 1 -->
<svg width="1741pt" height="681pt"
 viewBox="0.00 0.00 1741.00 681.00" xmlns="http://www.w3.org/2000/svg" xmlns:xlink="http://www.w3.org/1999/xlink">
<g id="graph0" class="graph" transform="scale(1 1) rotate(0) translate(14.4 666.4)">
<title>ptah_schema</title>
<polygon fill="#111827" stroke="none" points="-14.4,14.4 -14.4,-666.4 1726.9,-666.4 1726.9,14.4 -14.4,14.4"/>
<!-- organizations -->
<g id="node1" class="node">
<title>organizations</title>
<polygon fill="#374151" stroke="none" points="1593.25,-551 1593.25,-580 1711.5,-580 1711.5,-551 1593.25,-551"/>
<polygon fill="none" stroke="#94a3b8" points="1593.25,-551 1593.25,-580 1711.5,-580 1711.5,-551 1593.25,-551"/>
<text xml:space="preserve" text-anchor="start" x="1608.5" y="-560.7" font-family="Helvetica,sans-Serif" font-weight="bold" font-size="14.00" fill="#f9fafb">organizations</text>
<polygon fill="#1f2937" stroke="none" points="1593.25,-522 1593.25,-551 1711.5,-551 1711.5,-522 1593.25,-522"/>
<polygon fill="none" stroke="#94a3b8" points="1593.25,-522 1593.25,-551 1711.5,-551 1711.5,-522 1593.25,-522"/>
<text xml:space="preserve" text-anchor="start" x="1600.25" y="-532.75" font-family="Helvetica,sans-Serif" font-size="14.00" fill="#e5e7eb">id : INTEGER PK</text>
<polygon fill="#1f2937" stroke="none" points="1593.25,-493 1593.25,-522 1711.5,-522 1711.5,-493 1593.25,-493"/>
<polygon fill="none" stroke="#94a3b8" points="1593.25,-493 1593.25,-522 1711.5,-522 1711.5,-493 1593.25,-493"/>
<text xml:space="preserve" text-anchor="start" x="1600.25" y="-503.75" font-family="Helvetica,sans-Serif" font-size="14.00" fill="#e5e7eb">name : TEXT</text>
<polygon fill="#1f2937" stroke="none" points="1593.25,-464 1593.25,-493 1711.5,-493 1711.5,-464 1593.25,-464"/>
<polygon fill="none" stroke="#94a3b8" points="1593.25,-464 1593.25,-493 1711.5,-493 1711.5,-464 1593.25,-464"/>
<text xml:space="preserve" text-anchor="start" x="1600.25" y="-474.75" font-family="Helvetica,sans-Serif" font-size="14.00" fill="#e5e7eb">slug : TEXT</text>
<polygon fill="none" stroke="#94a3b8" points="1592.25,-463 1592.25,-581 1712.5,-581 1712.5,-463 1592.25,-463"/>
</g>
<!-- tags -->
<g id="node2" class="node">
<title>tags</title>
<polygon fill="#374151" stroke="none" points="578.25,-622 578.25,-651 776.75,-651 776.75,-622 578.25,-622"/>
<polygon fill="none" stroke="#94a3b8" points="578.25,-622 578.25,-651 776.75,-651 776.75,-622 578.25,-622"/>
<text xml:space="preserve" text-anchor="start" x="663.62" y="-631.7" font-family="Helvetica,sans-Serif" font-weight="bold" font-size="14.00" fill="#f9fafb">tags</text>
<polygon fill="#1f2937" stroke="none" points="578.25,-593 578.25,-622 776.75,-622 776.75,-593 578.25,-593"/>
<polygon fill="none" stroke="#94a3b8" points="578.25,-593 578.25,-622 776.75,-622 776.75,-593 578.25,-593"/>
<text xml:space="preserve" text-anchor="start" x="585.25" y="-603.75" font-family="Helvetica,sans-Serif" font-size="14.00" fill="#e5e7eb">id : INTEGER PK</text>
<polygon fill="#1f2937" stroke="none" points="578.25,-564 578.25,-593 776.75,-593 776.75,-564 578.25,-564"/>
<polygon fill="none" stroke="#94a3b8" points="578.25,-564 578.25,-593 776.75,-593 776.75,-564 578.25,-564"/>
<text xml:space="preserve" text-anchor="start" x="585.25" y="-574.75" font-family="Helvetica,sans-Serif" font-size="14.00" fill="#e5e7eb">organization_id : INTEGER FK</text>
<polygon fill="#1f2937" stroke="none" points="578.25,-535 578.25,-564 776.75,-564 776.75,-535 578.25,-535"/>
<polygon fill="none" stroke="#94a3b8" points="578.25,-535 578.25,-564 776.75,-564 776.75,-535 578.25,-535"/>
<text xml:space="preserve" text-anchor="start" x="585.25" y="-545.75" font-family="Helvetica,sans-Serif" font-size="14.00" fill="#e5e7eb">name : TEXT</text>
<polygon fill="none" stroke="#94a3b8" points="577.25,-534 577.25,-652 777.75,-652 777.75,-534 577.25,-534"/>
</g>
<!-- tags&#45;&gt;organizations -->
<g id="edge5" class="edge">
<title>tags&#45;&gt;organizations</title>
<path fill="none" stroke="#60a5fa" d="M777.59,-585.77C974.4,-571.41 1410.26,-539.6 1580.91,-527.14"/>
<polygon fill="#60a5fa" stroke="#60a5fa" points="1581.02,-530.64 1590.74,-526.43 1580.51,-523.66 1581.02,-530.64"/>
<text xml:space="preserve" text-anchor="middle" x="1101.88" y="-569.34" font-family="Times,serif" font-size="14.00" fill="#dbeafe">fk_tags_organization_id</text>
</g>
<!-- users -->
<g id="node3" class="node">
<title>users</title>
<polygon fill="#374151" stroke="none" points="1197.5,-312 1197.5,-341 1396,-341 1396,-312 1197.5,-312"/>
<polygon fill="none" stroke="#94a3b8" points="1197.5,-312 1197.5,-341 1396,-341 1396,-312 1197.5,-312"/>
<text xml:space="preserve" text-anchor="start" x="1278.75" y="-321.7" font-family="Helvetica,sans-Serif" font-weight="bold" font-size="14.00" fill="#f9fafb">users</text>
<polygon fill="#1f2937" stroke="none" points="1197.5,-283 1197.5,-312 1396,-312 1396,-283 1197.5,-283"/>
<polygon fill="none" stroke="#94a3b8" points="1197.5,-283 1197.5,-312 1396,-312 1396,-283 1197.5,-283"/>
<text xml:space="preserve" text-anchor="start" x="1204.5" y="-293.75" font-family="Helvetica,sans-Serif" font-size="14.00" fill="#e5e7eb">id : INTEGER PK</text>
<polygon fill="#1f2937" stroke="none" points="1197.5,-254 1197.5,-283 1396,-283 1396,-254 1197.5,-254"/>
<polygon fill="none" stroke="#94a3b8" points="1197.5,-254 1197.5,-283 1396,-283 1396,-254 1197.5,-254"/>
<text xml:space="preserve" text-anchor="start" x="1204.5" y="-264.75" font-family="Helvetica,sans-Serif" font-size="14.00" fill="#e5e7eb">organization_id : INTEGER FK</text>
<polygon fill="#1f2937" stroke="none" points="1197.5,-225 1197.5,-254 1396,-254 1396,-225 1197.5,-225"/>
<polygon fill="none" stroke="#94a3b8" points="1197.5,-225 1197.5,-254 1396,-254 1396,-225 1197.5,-225"/>
<text xml:space="preserve" text-anchor="start" x="1204.5" y="-235.75" font-family="Helvetica,sans-Serif" font-size="14.00" fill="#e5e7eb">email : TEXT</text>
<polygon fill="#1f2937" stroke="none" points="1197.5,-196 1197.5,-225 1396,-225 1396,-196 1197.5,-196"/>
<polygon fill="none" stroke="#94a3b8" points="1197.5,-196 1197.5,-225 1396,-225 1396,-196 1197.5,-196"/>
<text xml:space="preserve" text-anchor="start" x="1204.5" y="-206.75" font-family="Helvetica,sans-Serif" font-size="14.00" fill="#e5e7eb">display_name : TEXT</text>
<polygon fill="#1f2937" stroke="none" points="1197.5,-167 1197.5,-196 1396,-196 1396,-167 1197.5,-167"/>
<polygon fill="none" stroke="#94a3b8" points="1197.5,-167 1197.5,-196 1396,-196 1396,-167 1197.5,-167"/>
<text xml:space="preserve" text-anchor="start" x="1204.5" y="-177.75" font-family="Helvetica,sans-Serif" font-size="14.00" fill="#e5e7eb">manager_id : INTEGER FK</text>
<polygon fill="none" stroke="#94a3b8" points="1196.5,-166 1196.5,-342 1397,-342 1397,-166 1196.5,-166"/>
</g>
<!-- users&#45;&gt;organizations -->
<g id="edge13" class="edge">
<title>users&#45;&gt;organizations</title>
<path fill="none" stroke="#60a5fa" d="M1396.72,-329.01C1456.22,-374.1 1530.39,-430.31 1583.32,-470.42"/>
<polygon fill="#60a5fa" stroke="#60a5fa" points="1580.99,-473.05 1591.08,-476.3 1585.22,-467.47 1580.99,-473.05"/>
<text xml:space="preserve" text-anchor="middle" x="1494.62" y="-453.32" font-family="Times,serif" font-size="14.00" fill="#dbeafe">fk_users_organization_id</text>
</g>
<!-- users&#45;&gt;users -->
<g id="edge14" class="edge">
<title>users&#45;&gt;users</title>
<path fill="none" stroke="#60a5fa" d="M1260.41,-341.85C1262.09,-366.29 1274.2,-385 1296.75,-385 1315.69,-385 1327.27,-371.8 1331.48,-353.1"/>
<polygon fill="#60a5fa" stroke="#60a5fa" points="1334.92,-353.75 1332.87,-343.35 1327.99,-352.76 1334.92,-353.75"/>
<text xml:space="preserve" text-anchor="middle" x="1296.75" y="-388.2" font-family="Times,serif" font-size="14.00" fill="#dbeafe">fk_users_manager_id</text>
</g>
<!-- projects -->
<g id="node4" class="node">
<title>projects</title>
<polygon fill="#374151" stroke="none" points="807.75,-400 807.75,-429 1006.25,-429 1006.25,-400 807.75,-400"/>
<polygon fill="none" stroke="#94a3b8" points="807.75,-400 807.75,-429 1006.25,-429 1006.25,-400 807.75,-400"/>
<text xml:space="preserve" text-anchor="start" x="880.75" y="-409.7" font-family="Helvetica,sans-Serif" font-weight="bold" font-size="14.00" fill="#f9fafb">projects</text>
<polygon fill="#1f2937" stroke="none" points="807.75,-371 807.75,-400 1006.25,-400 1006.25,-371 807.75,-371"/>
<polygon fill="none" stroke="#94a3b8" points="807.75,-371 807.75,-400 1006.25,-400 1006.25,-371 807.75,-371"/>
<text xml:space="preserve" text-anchor="start" x="814.75" y="-381.75" font-family="Helvetica,sans-Serif" font-size="14.00" fill="#e5e7eb">id : INTEGER PK</text>
<polygon fill="#1f2937" stroke="none" points="807.75,-342 807.75,-371 1006.25,-371 1006.25,-342 807.75,-342"/>
<polygon fill="none" stroke="#94a3b8" points="807.75,-342 807.75,-371 1006.25,-371 1006.25,-342 807.75,-342"/>
<text xml:space="preserve" text-anchor="start" x="814.75" y="-352.75" font-family="Helvetica,sans-Serif" font-size="14.00" fill="#e5e7eb">organization_id : INTEGER FK</text>
<polygon fill="#1f2937" stroke="none" points="807.75,-313 807.75,-342 1006.25,-342 1006.25,-313 807.75,-313"/>
<polygon fill="none" stroke="#94a3b8" points="807.75,-313 807.75,-342 1006.25,-342 1006.25,-313 807.75,-313"/>
<text xml:space="preserve" text-anchor="start" x="814.75" y="-323.75" font-family="Helvetica,sans-Serif" font-size="14.00" fill="#e5e7eb">owner_id : INTEGER FK</text>
<polygon fill="#1f2937" stroke="none" points="807.75,-284 807.75,-313 1006.25,-313 1006.25,-284 807.75,-284"/>
<polygon fill="none" stroke="#94a3b8" points="807.75,-284 807.75,-313 1006.25,-313 1006.25,-284 807.75,-284"/>
<text xml:space="preserve" text-anchor="start" x="814.75" y="-294.75" font-family="Helvetica,sans-Serif" font-size="14.00" fill="#e5e7eb">key : TEXT</text>
<polygon fill="#1f2937" stroke="none" points="807.75,-255 807.75,-284 1006.25,-284 1006.25,-255 807.75,-255"/>
<polygon fill="none" stroke="#94a3b8" points="807.75,-255 807.75,-284 1006.25,-284 1006.25,-255 807.75,-255"/>
<text xml:space="preserve" text-anchor="start" x="814.75" y="-265.75" font-family="Helvetica,sans-Serif" font-size="14.00" fill="#e5e7eb">name : TEXT</text>
<polygon fill="none" stroke="#94a3b8" points="806.75,-254 806.75,-430 1007.25,-430 1007.25,-254 806.75,-254"/>
</g>
<!-- projects&#45;&gt;organizations -->
<g id="edge3" class="edge">
<title>projects&#45;&gt;organizations</title>
<path fill="none" stroke="#60a5fa" d="M1006.88,-369.59C1110.81,-398.16 1279.27,-443.26 1426,-477 1477.69,-488.89 1536.47,-500.56 1581.03,-509.04"/>
<polygon fill="#60a5fa" stroke="#60a5fa" points="1580.37,-512.48 1590.85,-510.9 1581.67,-505.6 1580.37,-512.48"/>
<text xml:space="preserve" text-anchor="middle" x="1296.75" y="-472.93" font-family="Times,serif" font-size="14.00" fill="#dbeafe">fk_projects_organization_id</text>
</g>
<!-- projects&#45;&gt;users -->
<g id="edge4" class="edge">
<title>projects&#45;&gt;users</title>
<path fill="none" stroke="#60a5fa" d="M1007.1,-319.51C1061.58,-307.14 1129.31,-291.77 1185.46,-279.03"/>
<polygon fill="#60a5fa" stroke="#60a5fa" points="1186.08,-282.48 1195.06,-276.85 1184.53,-275.65 1186.08,-282.48"/>
<text xml:space="preserve" text-anchor="middle" x="1101.88" y="-314.22" font-family="Times,serif" font-size="14.00" fill="#dbeafe">fk_projects_owner_id</text>
</g>
<!-- tasks -->
<g id="node5" class="node">
<title>tasks</title>
<polygon fill="#374151" stroke="none" points="351.75,-281 351.75,-310 547.25,-310 547.25,-281 351.75,-281"/>
<polygon fill="none" stroke="#94a3b8" points="351.75,-281 351.75,-310 547.25,-310 547.25,-281 351.75,-281"/>
<text xml:space="preserve" text-anchor="start" x="432.25" y="-290.7" font-family="Helvetica,sans-Serif" font-weight="bold" font-size="14.00" fill="#f9fafb">tasks</text>
<polygon fill="#1f2937" stroke="none" points="351.75,-252 351.75,-281 547.25,-281 547.25,-252 351.75,-252"/>
<polygon fill="none" stroke="#94a3b8" points="351.75,-252 351.75,-281 547.25,-281 547.25,-252 351.75,-252"/>
<text xml:space="preserve" text-anchor="start" x="358.75" y="-262.75" font-family="Helvetica,sans-Serif" font-size="14.00" fill="#e5e7eb">id : INTEGER PK</text>
<polygon fill="#1f2937" stroke="none" points="351.75,-223 351.75,-252 547.25,-252 547.25,-223 351.75,-223"/>
<polygon fill="none" stroke="#94a3b8" points="351.75,-223 351.75,-252 547.25,-252 547.25,-223 351.75,-223"/>
<text xml:space="preserve" text-anchor="start" x="358.75" y="-233.75" font-family="Helvetica,sans-Serif" font-size="14.00" fill="#e5e7eb">project_id : INTEGER FK</text>
<polygon fill="#1f2937" stroke="none" points="351.75,-194 351.75,-223 547.25,-223 547.25,-194 351.75,-194"/>
<polygon fill="none" stroke="#94a3b8" points="351.75,-194 351.75,-223 547.25,-223 547.25,-194 351.75,-194"/>
<text xml:space="preserve" text-anchor="start" x="358.75" y="-204.75" font-family="Helvetica,sans-Serif" font-size="14.00" fill="#e5e7eb">assignee_id : INTEGER FK</text>
<polygon fill="#1f2937" stroke="none" points="351.75,-165 351.75,-194 547.25,-194 547.25,-165 351.75,-165"/>
<polygon fill="none" stroke="#94a3b8" points="351.75,-165 351.75,-194 547.25,-194 547.25,-165 351.75,-165"/>
<text xml:space="preserve" text-anchor="start" x="358.75" y="-175.75" font-family="Helvetica,sans-Serif" font-size="14.00" fill="#e5e7eb">reporter_id : INTEGER FK</text>
<polygon fill="#1f2937" stroke="none" points="351.75,-136 351.75,-165 547.25,-165 547.25,-136 351.75,-136"/>
<polygon fill="none" stroke="#94a3b8" points="351.75,-136 351.75,-165 547.25,-165 547.25,-136 351.75,-136"/>
<text xml:space="preserve" text-anchor="start" x="358.75" y="-146.75" font-family="Helvetica,sans-Serif" font-size="14.00" fill="#e5e7eb">parent_task_id : INTEGER FK</text>
<polygon fill="#1f2937" stroke="none" points="351.75,-107 351.75,-136 547.25,-136 547.25,-107 351.75,-107"/>
<polygon fill="none" stroke="#94a3b8" points="351.75,-107 351.75,-136 547.25,-136 547.25,-107 351.75,-107"/>
<text xml:space="preserve" text-anchor="start" x="358.75" y="-117.75" font-family="Helvetica,sans-Serif" font-size="14.00" fill="#e5e7eb">title : TEXT</text>
<polygon fill="#1f2937" stroke="none" points="351.75,-78 351.75,-107 547.25,-107 547.25,-78 351.75,-78"/>
<polygon fill="none" stroke="#94a3b8" points="351.75,-78 351.75,-107 547.25,-107 547.25,-78 351.75,-78"/>
<text xml:space="preserve" text-anchor="start" x="358.75" y="-88.75" font-family="Helvetica,sans-Serif" font-size="14.00" fill="#e5e7eb">status : TEXT</text>
<polygon fill="none" stroke="#94a3b8" points="350.75,-77 350.75,-311 548.25,-311 548.25,-77 350.75,-77"/>
</g>
<!-- tasks&#45;&gt;users -->
<g id="edge11" class="edge">
<title>tasks&#45;&gt;users</title>
<path fill="none" stroke="#60a5fa" d="M548.24,-167.57C659.37,-140.84 846.26,-105.91 1007.25,-124.5 1079.91,-132.89 1100.89,-131.77 1167.5,-162 1174.12,-165.01 1180.75,-168.38 1187.31,-172.01"/>
<polygon fill="#60a5fa" stroke="#60a5fa" points="1185.14,-174.79 1195.55,-176.74 1188.62,-168.72 1185.14,-174.79"/>
<text xml:space="preserve" text-anchor="middle" x="907" y="-127.7" font-family="Times,serif" font-size="14.00" fill="#dbeafe">fk_tasks_assignee_id</text>
</g>
<!-- tasks&#45;&gt;users -->
<g id="edge12" class="edge">
<title>tasks&#45;&gt;users</title>
<path fill="none" stroke="#60a5fa" d="M548.22,-195.32C659.52,-197.44 846.76,-202.85 1007.25,-216.5 1066.22,-221.51 1131.64,-229.79 1185.26,-237.3"/>
<polygon fill="#60a5fa" stroke="#60a5fa" points="1184.62,-240.74 1195.01,-238.68 1185.6,-233.81 1184.62,-240.74"/>
<text xml:space="preserve" text-anchor="middle" x="907" y="-219.7" font-family="Times,serif" font-size="14.00" fill="#dbeafe">fk_tasks_reporter_id</text>
</g>
<!-- tasks&#45;&gt;projects -->
<g id="edge9" class="edge">
<title>tasks&#45;&gt;projects</title>
<path fill="none" stroke="#60a5fa" d="M548.22,-225.75C621.12,-249.44 720.75,-281.81 796.37,-306.38"/>
<polygon fill="#60a5fa" stroke="#60a5fa" points="794.84,-309.56 805.43,-309.32 797.01,-302.91 794.84,-309.56"/>
<text xml:space="preserve" text-anchor="middle" x="677.5" y="-301.47" font-family="Times,serif" font-size="14.00" fill="#dbeafe">fk_tasks_project_id</text>
</g>
<!-- tasks&#45;&gt;tasks -->
<g id="edge10" class="edge">
<title>tasks&#45;&gt;tasks</title>
<path fill="none" stroke="#60a5fa" d="M415.32,-310.85C418.72,-335.88 430.12,-354 449.5,-354 465.85,-354 476.52,-341.1 481.5,-322.04"/>
<polygon fill="#60a5fa" stroke="#60a5fa" points="484.91,-322.82 483.39,-312.34 478.04,-321.48 484.91,-322.82"/>
<text xml:space="preserve" text-anchor="middle" x="449.5" y="-357.2" font-family="Times,serif" font-size="14.00" fill="#dbeafe">fk_tasks_parent_task_id</text>
</g>
<!-- comments -->
<g id="node6" class="node">
<title>comments</title>
<polygon fill="#374151" stroke="none" points="4.38,-146 4.38,-175 167.62,-175 167.62,-146 4.38,-146"/>
<polygon fill="none" stroke="#94a3b8" points="4.38,-146 4.38,-175 167.62,-175 167.62,-146 4.38,-146"/>
<text xml:space="preserve" text-anchor="start" x="51.5" y="-155.7" font-family="Helvetica,sans-Serif" font-weight="bold" font-size="14.00" fill="#f9fafb">comments</text>
<polygon fill="#1f2937" stroke="none" points="4.38,-117 4.38,-146 167.62,-146 167.62,-117 4.38,-117"/>
<polygon fill="none" stroke="#94a3b8" points="4.38,-117 4.38,-146 167.62,-146 167.62,-117 4.38,-117"/>
<text xml:space="preserve" text-anchor="start" x="11.38" y="-127.75" font-family="Helvetica,sans-Serif" font-size="14.00" fill="#e5e7eb">id : INTEGER PK</text>
<polygon fill="#1f2937" stroke="none" points="4.38,-88 4.38,-117 167.62,-117 167.62,-88 4.38,-88"/>
<polygon fill="none" stroke="#94a3b8" points="4.38,-88 4.38,-117 167.62,-117 167.62,-88 4.38,-88"/>
<text xml:space="preserve" text-anchor="start" x="11.38" y="-98.75" font-family="Helvetica,sans-Serif" font-size="14.00" fill="#e5e7eb">task_id : INTEGER FK</text>
<polygon fill="#1f2937" stroke="none" points="4.38,-59 4.38,-88 167.62,-88 167.62,-59 4.38,-59"/>
<polygon fill="none" stroke="#94a3b8" points="4.38,-59 4.38,-88 167.62,-88 167.62,-59 4.38,-59"/>
<text xml:space="preserve" text-anchor="start" x="11.38" y="-69.75" font-family="Helvetica,sans-Serif" font-size="14.00" fill="#e5e7eb">author_id : INTEGER FK</text>
<polygon fill="#1f2937" stroke="none" points="4.38,-30 4.38,-59 167.62,-59 167.62,-30 4.38,-30"/>
<polygon fill="none" stroke="#94a3b8" points="4.38,-30 4.38,-59 167.62,-59 167.62,-30 4.38,-30"/>
<text xml:space="preserve" text-anchor="start" x="11.38" y="-40.75" font-family="Helvetica,sans-Serif" font-size="14.00" fill="#e5e7eb">body : TEXT</text>
<polygon fill="#1f2937" stroke="none" points="4.38,-1 4.38,-30 167.62,-30 167.62,-1 4.38,-1"/>
<polygon fill="none" stroke="#94a3b8" points="4.38,-1 4.38,-30 167.62,-30 167.62,-1 4.38,-1"/>
<text xml:space="preserve" text-anchor="start" x="11.38" y="-11.75" font-family="Helvetica,sans-Serif" font-size="14.00" fill="#e5e7eb">created_at : TEXT</text>
<polygon fill="none" stroke="#94a3b8" points="3.38,0 3.38,-176 168.62,-176 168.62,0 3.38,0"/>
</g>
<!-- comments&#45;&gt;users -->
<g id="edge2" class="edge">
<title>comments&#45;&gt;users</title>
<path fill="none" stroke="#60a5fa" d="M168.34,-68.46C356.04,-27.84 829.19,48.8 1167.5,-118 1187.64,-127.93 1206.26,-142.42 1222.71,-158.29"/>
<polygon fill="#60a5fa" stroke="#60a5fa" points="1219.99,-160.52 1229.54,-165.1 1224.93,-155.56 1219.99,-160.52"/>
<text xml:space="preserve" text-anchor="middle" x="677.5" y="-23.3" font-family="Times,serif" font-size="14.00" fill="#dbeafe">fk_comments_author_id</text>
</g>
<!-- comments&#45;&gt;tasks -->
<g id="edge1" class="edge">
<title>comments&#45;&gt;tasks</title>
<path fill="none" stroke="#60a5fa" d="M168.58,-111.92C219.24,-126.78 284.96,-146.05 339.98,-162.18"/>
<polygon fill="#60a5fa" stroke="#60a5fa" points="338.8,-165.48 349.39,-164.94 340.77,-158.77 338.8,-165.48"/>
<text xml:space="preserve" text-anchor="middle" x="261.38" y="-159.89" font-family="Times,serif" font-size="14.00" fill="#dbeafe">fk_comments_task_id</text>
</g>
<!-- task_tags -->
<g id="node7" class="node">
<title>task_tags</title>
<polygon fill="#374151" stroke="none" points="1,-524 1,-553 171,-553 171,-524 1,-524"/>
<polygon fill="none" stroke="#94a3b8" points="1,-524 1,-553 171,-553 171,-524 1,-524"/>
<text xml:space="preserve" text-anchor="start" x="54.88" y="-533.7" font-family="Helvetica,sans-Serif" font-weight="bold" font-size="14.00" fill="#f9fafb">task_tags</text>
<polygon fill="#1f2937" stroke="none" points="1,-495 1,-524 171,-524 171,-495 1,-495"/>
<polygon fill="none" stroke="#94a3b8" points="1,-495 1,-524 171,-524 171,-495 1,-495"/>
<text xml:space="preserve" text-anchor="start" x="8" y="-505.75" font-family="Helvetica,sans-Serif" font-size="14.00" fill="#e5e7eb">task_id : INTEGER FK</text>
<polygon fill="#1f2937" stroke="none" points="1,-466 1,-495 171,-495 171,-466 1,-466"/>
<polygon fill="none" stroke="#94a3b8" points="1,-466 1,-495 171,-495 171,-466 1,-466"/>
<text xml:space="preserve" text-anchor="start" x="8" y="-476.75" font-family="Helvetica,sans-Serif" font-size="14.00" fill="#e5e7eb">tag_id : INTEGER FK</text>
<polygon fill="#1f2937" stroke="none" points="1,-437 1,-466 171,-466 171,-437 1,-437"/>
<polygon fill="none" stroke="#94a3b8" points="1,-437 1,-466 171,-466 171,-437 1,-437"/>
<text xml:space="preserve" text-anchor="start" x="8" y="-447.75" font-family="Helvetica,sans-Serif" font-size="14.00" fill="#e5e7eb">tagged_by : INTEGER FK</text>
<polygon fill="none" stroke="#94a3b8" points="0,-436 0,-554 172,-554 172,-436 0,-436"/>
</g>
<!-- task_tags&#45;&gt;tags -->
<g id="edge6" class="edge">
<title>task_tags&#45;&gt;tags</title>
<path fill="none" stroke="#60a5fa" d="M171.97,-520.21C181.71,-522.7 191.54,-525.03 201,-527 324.99,-552.88 469.36,-571.3 566.2,-581.99"/>
<polygon fill="#60a5fa" stroke="#60a5fa" points="565.65,-585.45 575.97,-583.05 566.41,-578.49 565.65,-585.45"/>
<text xml:space="preserve" text-anchor="middle" x="261.38" y="-552.29" font-family="Times,serif" font-size="14.00" fill="#dbeafe">fk_task_tags_tag_id</text>
</g>
<!-- task_tags&#45;&gt;users -->
<g id="edge8" class="edge">
<title>task_tags&#45;&gt;users</title>
<path fill="none" stroke="#60a5fa" d="M171.76,-496.93C369.08,-500.47 854.03,-503.47 1007.25,-452 1072.85,-429.96 1137.19,-388.34 1188.4,-348.91"/>
<polygon fill="#60a5fa" stroke="#60a5fa" points="1190.55,-351.68 1196.29,-342.77 1186.25,-346.16 1190.55,-351.68"/>
<text xml:space="preserve" text-anchor="middle" x="677.5" y="-499.06" font-family="Times,serif" font-size="14.00" fill="#dbeafe">fk_task_tags_tagged_by</text>
</g>
<!-- task_tags&#45;&gt;tasks -->
<g id="edge7" class="edge">
<title>task_tags&#45;&gt;tasks</title>
<path fill="none" stroke="#60a5fa" d="M157.56,-436.25C210.04,-392.55 282.58,-332.16 342.09,-282.6"/>
<polygon fill="#60a5fa" stroke="#60a5fa" points="344.16,-285.43 349.61,-276.34 339.68,-280.05 344.16,-285.43"/>
<text xml:space="preserve" text-anchor="middle" x="261.38" y="-400.84" font-family="Times,serif" font-size="14.00" fill="#dbeafe">fk_task_tags_task_id</text>
</g>
</g>
</svg>
