<?xml version="1.0" encoding="UTF-8" standalone="no"?>
<!DOCTYPE svg PUBLIC "-//W3C//DTD SVG 1.1//EN"
 "http://www.w3.org/Graphics/SVG/1.1/DTD/svg11.dtd">
<!-- Generated by graphviz version 12.2.1 (20241206.2353)
 -->
<!-- Title: ptah_schema Pages: 1 -->
<svg width="1002pt" height="357pt"
 viewBox="0.00 0.00 1002.05 357.42" xmlns="http://www.w3.org/2000/svg" xmlns:xlink="http://www.w3.org/1999/xlink">
<g id="graph0" class="graph" transform="scale(1 1) rotate(0) translate(14.4 343.02)">
<title>ptah_schema</title>
<polygon fill="white" stroke="none" points="-14.4,14.4 -14.4,-343.02 987.65,-343.02 987.65,14.4 -14.4,14.4"/>
<!-- customers -->
<g id="node1" class="node">
<title>customers</title>
<polygon fill="#e2e8f0" stroke="none" points="848.75,-280.75 848.75,-312 972.25,-312 972.25,-280.75 848.75,-280.75"/>
<polygon fill="none" stroke="#64748b" points="848.75,-280.75 848.75,-312 972.25,-312 972.25,-280.75 848.75,-280.75"/>
<text text-anchor="start" x="869.62" y="-292.7" font-family="Helvetica,sans-Serif" font-weight="bold" font-size="14.00" fill="#0f172a">customers</text>
<polygon fill="#f8fafc" stroke="none" points="848.75,-249.5 848.75,-280.75 972.25,-280.75 972.25,-249.5 848.75,-249.5"/>
<polygon fill="none" stroke="#64748b" points="848.75,-249.5 848.75,-280.75 972.25,-280.75 972.25,-249.5 848.75,-249.5"/>
<text text-anchor="start" x="855.75" y="-260.45" font-family="Helvetica,sans-Serif" font-size="14.00" fill="#334155">id : INTEGER PK</text>
<polygon fill="#f8fafc" stroke="none" points="848.75,-218.25 848.75,-249.5 972.25,-249.5 972.25,-218.25 848.75,-218.25"/>
<polygon fill="none" stroke="#64748b" points="848.75,-218.25 848.75,-249.5 972.25,-249.5 972.25,-218.25 848.75,-218.25"/>
<text text-anchor="start" x="855.75" y="-229.2" font-family="Helvetica,sans-Serif" font-size="14.00" fill="#334155">email : TEXT</text>
<polygon fill="#f8fafc" stroke="none" points="848.75,-187 848.75,-218.25 972.25,-218.25 972.25,-187 848.75,-187"/>
<polygon fill="none" stroke="#64748b" points="848.75,-187 848.75,-218.25 972.25,-218.25 972.25,-187 848.75,-187"/>
<text text-anchor="start" x="855.75" y="-197.95" font-family="Helvetica,sans-Serif" font-size="14.00" fill="#334155">country : TEXT</text>
<polygon fill="none" stroke="#64748b" points="847.75,-186 847.75,-313 973.25,-313 973.25,-186 847.75,-186"/>
</g>
<!-- orders -->
<g id="node2" class="node">
<title>orders</title>
<polygon fill="#e2e8f0" stroke="none" points="432.75,-296.38 432.75,-327.62 628.25,-327.62 628.25,-296.38 432.75,-296.38"/>
<polygon fill="none" stroke="#64748b" points="432.75,-296.38 432.75,-327.62 628.25,-327.62 628.25,-296.38 432.75,-296.38"/>
<text text-anchor="start" x="505" y="-308.32" font-family="Helvetica,sans-Serif" font-weight="bold" font-size="14.00" fill="#0f172a">orders</text>
<polygon fill="#f8fafc" stroke="none" points="432.75,-265.12 432.75,-296.38 628.25,-296.38 628.25,-265.12 432.75,-265.12"/>
<polygon fill="none" stroke="#64748b" points="432.75,-265.12 432.75,-296.38 628.25,-296.38 628.25,-265.12 432.75,-265.12"/>
<text text-anchor="start" x="439.75" y="-276.07" font-family="Helvetica,sans-Serif" font-size="14.00" fill="#334155">id : INTEGER PK</text>
<polygon fill="#f8fafc" stroke="none" points="432.75,-233.88 432.75,-265.12 628.25,-265.12 628.25,-233.88 432.75,-233.88"/>
<polygon fill="none" stroke="#64748b" points="432.75,-233.88 432.75,-265.12 628.25,-265.12 628.25,-233.88 432.75,-233.88"/>
<text text-anchor="start" x="439.75" y="-244.82" font-family="Helvetica,sans-Serif" font-size="14.00" fill="#334155">customer_id : INTEGER FK</text>
<polygon fill="#f8fafc" stroke="none" points="432.75,-202.62 432.75,-233.88 628.25,-233.88 628.25,-202.62 432.75,-202.62"/>
<polygon fill="none" stroke="#64748b" points="432.75,-202.62 432.75,-233.88 628.25,-233.88 628.25,-202.62 432.75,-202.62"/>
<text text-anchor="start" x="439.75" y="-213.57" font-family="Helvetica,sans-Serif" font-size="14.00" fill="#334155">status : TEXT</text>
<polygon fill="#f8fafc" stroke="none" points="432.75,-171.38 432.75,-202.62 628.25,-202.62 628.25,-171.38 432.75,-171.38"/>
<polygon fill="none" stroke="#64748b" points="432.75,-171.38 432.75,-202.62 628.25,-202.62 628.25,-171.38 432.75,-171.38"/>
<text text-anchor="start" x="439.75" y="-182.32" font-family="Helvetica,sans-Serif" font-size="14.00" fill="#334155">placed_at : TEXT</text>
<polygon fill="none" stroke="#64748b" points="431.75,-170.38 431.75,-328.62 629.25,-328.62 629.25,-170.38 431.75,-170.38"/>
</g>
<!-- orders&#45;&gt;customers -->
<g id="edge3" class="edge">
<title>orders&#45;&gt;customers</title>
<path fill="none" stroke="#2563eb" d="M628.84,-249.5C693.65,-249.5 777.42,-249.5 836.52,-249.5"/>
<polygon fill="#2563eb" stroke="#2563eb" points="836.48,-253 846.48,-249.5 836.48,-246 836.48,-253"/>
<text text-anchor="middle" x="738.5" y="-253.45" font-family="Times,serif" font-size="14.00" fill="#1e3a8a">fk_orders_customer_id</text>
</g>
<!-- products -->
<g id="node3" class="node">
<title>products</title>
<polygon fill="#e2e8f0" stroke="none" points="468.75,-94.75 468.75,-126 592.25,-126 592.25,-94.75 468.75,-94.75"/>
<polygon fill="none" stroke="#64748b" points="468.75,-94.75 468.75,-126 592.25,-126 592.25,-94.75 468.75,-94.75"/>
<text text-anchor="start" x="496" y="-106.7" font-family="Helvetica,sans-Serif" font-weight="bold" font-size="14.00" fill="#0f172a">products</text>
<polygon fill="#f8fafc" stroke="none" points="468.75,-63.5 468.75,-94.75 592.25,-94.75 592.25,-63.5 468.75,-63.5"/>
<polygon fill="none" stroke="#64748b" points="468.75,-63.5 468.75,-94.75 592.25,-94.75 592.25,-63.5 468.75,-63.5"/>
<text text-anchor="start" x="475.75" y="-74.45" font-family="Helvetica,sans-Serif" font-size="14.00" fill="#334155">id : INTEGER PK</text>
<polygon fill="#f8fafc" stroke="none" points="468.75,-32.25 468.75,-63.5 592.25,-63.5 592.25,-32.25 468.75,-32.25"/>
<polygon fill="none" stroke="#64748b" points="468.75,-32.25 468.75,-63.5 592.25,-63.5 592.25,-32.25 468.75,-32.25"/>
<text text-anchor="start" x="475.75" y="-43.2" font-family="Helvetica,sans-Serif" font-size="14.00" fill="#334155">sku : TEXT</text>
<polygon fill="#f8fafc" stroke="none" points="468.75,-1 468.75,-32.25 592.25,-32.25 592.25,-1 468.75,-1"/>
<polygon fill="none" stroke="#64748b" points="468.75,-1 468.75,-32.25 592.25,-32.25 592.25,-1 468.75,-1"/>
<text text-anchor="start" x="475.75" y="-11.95" font-family="Helvetica,sans-Serif" font-size="14.00" fill="#334155">name : TEXT</text>
<polygon fill="none" stroke="#64748b" points="467.75,0 467.75,-127 593.25,-127 593.25,0 467.75,0"/>
</g>
<!-- order_items -->
<g id="node4" class="node">
<title>order_items</title>
<polygon fill="#e2e8f0" stroke="none" points="1,-142.38 1,-173.62 184.5,-173.62 184.5,-142.38 1,-142.38"/>
<polygon fill="none" stroke="#64748b" points="1,-142.38 1,-173.62 184.5,-173.62 184.5,-142.38 1,-142.38"/>
<text text-anchor="start" x="46.25" y="-154.32" font-family="Helvetica,sans-Serif" font-weight="bold" font-size="14.00" fill="#0f172a">order_items</text>
<polygon fill="#f8fafc" stroke="none" points="1,-111.12 1,-142.38 184.5,-142.38 184.5,-111.12 1,-111.12"/>
<polygon fill="none" stroke="#64748b" points="1,-111.12 1,-142.38 184.5,-142.38 184.5,-111.12 1,-111.12"/>
<text text-anchor="start" x="8" y="-122.08" font-family="Helvetica,sans-Serif" font-size="14.00" fill="#334155">id : INTEGER PK</text>
<polygon fill="#f8fafc" stroke="none" points="1,-79.88 1,-111.12 184.5,-111.12 184.5,-79.88 1,-79.88"/>
<polygon fill="none" stroke="#64748b" points="1,-79.88 1,-111.12 184.5,-111.12 184.5,-79.88 1,-79.88"/>
<text text-anchor="start" x="8" y="-90.83" font-family="Helvetica,sans-Serif" font-size="14.00" fill="#334155">order_id : INTEGER FK</text>
<polygon fill="#f8fafc" stroke="none" points="1,-48.62 1,-79.88 184.5,-79.88 184.5,-48.62 1,-48.62"/>
<polygon fill="none" stroke="#64748b" points="1,-48.62 1,-79.88 184.5,-79.88 184.5,-48.62 1,-48.62"/>
<text text-anchor="start" x="8" y="-59.58" font-family="Helvetica,sans-Serif" font-size="14.00" fill="#334155">product_id : INTEGER FK</text>
<polygon fill="#f8fafc" stroke="none" points="1,-17.38 1,-48.62 184.5,-48.62 184.5,-17.38 1,-17.38"/>
<polygon fill="none" stroke="#64748b" points="1,-17.38 1,-48.62 184.5,-48.62 184.5,-17.38 1,-17.38"/>
<text text-anchor="start" x="8" y="-28.32" font-family="Helvetica,sans-Serif" font-size="14.00" fill="#334155">quantity : INTEGER</text>
<polygon fill="none" stroke="#64748b" points="0,-16.38 0,-174.62 185.5,-174.62 185.5,-16.38 0,-16.38"/>
</g>
<!-- order_items&#45;&gt;orders -->
<g id="edge1" class="edge">
<title>order_items&#45;&gt;orders</title>
<path fill="none" stroke="#2563eb" d="M185.36,-127.88C254.24,-152.22 348.83,-185.65 421.41,-211.3"/>
<polygon fill="#2563eb" stroke="#2563eb" points="419.94,-214.49 430.53,-214.52 422.27,-207.89 419.94,-214.49"/>
<text text-anchor="middle" x="308.62" y="-207.94" font-family="Times,serif" font-size="14.00" fill="#1e3a8a">fk_order_items_order_id</text>
</g>
<!-- order_items&#45;&gt;products -->
<g id="edge2" class="edge">
<title>order_items&#45;&gt;products</title>
<path fill="none" stroke="#2563eb" d="M185.36,-88.77C266.09,-82.84 382.14,-74.32 456.68,-68.85"/>
<polygon fill="#2563eb" stroke="#2563eb" points="456.59,-72.36 466.31,-68.14 456.08,-65.38 456.59,-72.36"/>
<text text-anchor="middle" x="308.62" y="-89.99" font-family="Times,serif" font-size="14.00" fill="#1e3a8a">fk_order_items_product_id</text>
</g>
</g>
</svg>
